<svg width="17" height="17" viewBox="0 0 17 17" fill="none" xmlns="http://www.w3.org/2000/svg">
<path d="M8.25 16.5C6.85 16.5 5.5625 16.1812 4.3875 15.5437C3.2125 14.9062 2.25 14.0562 1.5 12.9937V15H0V10.5H4.5V12H2.64375C3.24375 12.9 4.03438 13.625 5.01562 14.175C5.99687 14.725 7.075 15 8.25 15C9.1875 15 10.0656 14.8219 10.8844 14.4656C11.7031 14.1094 12.4156 13.6281 13.0219 13.0219C13.6281 12.4156 14.1094 11.7031 14.4656 10.8844C14.8219 10.0656 15 9.1875 15 8.25H16.5C16.5 9.3875 16.2844 10.4563 15.8531 11.4563C15.4219 12.4563 14.8313 13.3313 14.0813 14.0813C13.3313 14.8313 12.4563 15.4219 11.4563 15.8531C10.4563 16.2844 9.3875 16.5 8.25 16.5V16.5M7.575 13.5V12.525C6.9875 12.3875 6.50938 12.1344 6.14062 11.7656C5.77187 11.3969 5.5 10.9125 5.325 10.3125L6.5625 9.825C6.7125 10.3375 6.94688 10.7219 7.26562 10.9781C7.58437 11.2344 7.95 11.3625 8.3625 11.3625C8.775 11.3625 9.12813 11.2656 9.42188 11.0719C9.71562 10.8781 9.8625 10.575 9.8625 10.1625C9.8625 9.8 9.70937 9.50625 9.40312 9.28125C9.09687 9.05625 8.55 8.8 7.7625 8.5125C7.025 8.25 6.48438 7.9375 6.14062 7.575C5.79688 7.2125 5.625 6.7375 5.625 6.15C5.625 5.6375 5.80313 5.17188 6.15938 4.75313C6.51563 4.33438 7 4.0625 7.6125 3.9375V3H8.925V3.9375C9.375 3.975 9.78437 4.15625 10.1531 4.48125C10.5219 4.80625 10.775 5.1875 10.9125 5.625L9.7125 6.1125C9.6125 5.825 9.45 5.58437 9.225 5.39062C9 5.19688 8.6875 5.1 8.2875 5.1C7.85 5.1 7.51563 5.19375 7.28438 5.38125C7.05313 5.56875 6.9375 5.825 6.9375 6.15C6.9375 6.475 7.08125 6.73125 7.36875 6.91875C7.65625 7.10625 8.175 7.325 8.925 7.575C9.825 7.9 10.425 8.28125 10.725 8.71875C11.025 9.15625 11.175 9.6375 11.175 10.1625C11.175 10.525 11.1125 10.8437 10.9875 11.1187C10.8625 11.3937 10.6969 11.6281 10.4906 11.8219C10.2844 12.0156 10.0438 12.1719 9.76875 12.2906C9.49375 12.4094 9.2 12.5 8.8875 12.5625V13.5H7.575V13.5M0 8.25C0 7.1125 0.215625 6.04375 0.646875 5.04375C1.07813 4.04375 1.66875 3.16875 2.41875 2.41875C3.16875 1.66875 4.04375 1.07813 5.04375 0.646875C6.04375 0.215625 7.1125 0 8.25 0C9.65 0 10.9375 0.31875 12.1125 0.95625C13.2875 1.59375 14.25 2.44375 15 3.50625V1.5H16.5V6H12V4.5H13.8562C13.2562 3.6 12.4656 2.875 11.4844 2.325C10.5031 1.775 9.425 1.5 8.25 1.5C7.3125 1.5 6.43437 1.67812 5.61562 2.03437C4.79687 2.39062 4.08438 2.87188 3.47813 3.47813C2.87188 4.08438 2.39062 4.79687 2.03437 5.61562C1.67812 6.43437 1.5 7.3125 1.5 8.25H0V8.25" fill="#64748B"/>
</svg>
