<svg width="159" height="167" viewBox="0 0 159 167" fill="none" xmlns="http://www.w3.org/2000/svg">
<path d="M112.5 150H120.833V129.167H141.667V120.833H120.833V100H112.5V120.833H91.6667V129.167H112.5V150V150M116.667 166.667C105.139 166.667 95.3125 162.604 87.1875 154.479C79.0625 146.354 75 136.528 75 125C75 113.472 79.0625 103.646 87.1875 95.5208C95.3125 87.3958 105.139 83.3333 116.667 83.3333C128.194 83.3333 138.021 87.3958 146.146 95.5208C154.271 103.646 158.333 113.472 158.333 125C158.333 136.528 154.271 146.354 146.146 154.479C138.021 162.604 128.194 166.667 116.667 166.667V166.667M0 150V50L66.6667 0L133.333 50V69.1667C130.694 68.3333 127.986 67.7083 125.208 67.2917C122.431 66.875 119.583 66.6667 116.667 66.6667V58.3333L66.6667 20.8333L16.6667 58.3333V133.333H58.9583C59.375 136.25 60 139.097 60.8333 141.875C61.6667 144.653 62.7083 147.361 63.9583 150H0V150M66.6667 77.0833V77.0833V77.0833V77.0833V77.0833V77.0833V77.0833V77.0833V77.0833V77.0833V77.0833" fill="white" fill-opacity="0.05"/>
</svg>
