<svg width="27" height="25" viewBox="0 0 27 25" fill="none" xmlns="http://www.w3.org/2000/svg">
<path d="M0 24.4062V0H14.4375V5H26.9375V24.4062H0V24.4062M3.46875 20.9375H5.96875V18.4375H3.46875V20.9375V20.9375M3.46875 15.9375H5.96875V13.4375H3.46875V15.9375V15.9375M3.46875 10.9375H5.96875V8.4375H3.46875V10.9375V10.9375M3.46875 5.9375H5.96875V3.4375H3.46875V5.9375V5.9375M8.46875 20.9375H10.9688V18.4375H8.46875V20.9375V20.9375M8.46875 15.9375H10.9688V13.4375H8.46875V15.9375V15.9375M8.46875 10.9375H10.9688V8.4375H8.46875V10.9375V10.9375M8.46875 5.9375H10.9688V3.4375H8.46875V5.9375V5.9375M13.4688 20.9375H23.4688V8.4375H13.4688V10.9375H15.9688V13.4375H13.4688V15.9375H15.9688V18.4375H13.4688V20.9375V20.9375M18.4688 13.4375V10.9375H20.9688V13.4375H18.4688V13.4375M18.4688 18.4375V15.9375H20.9688V18.4375H18.4688V18.4375" fill="#0D7FF2"/>
</svg>
