<svg width="134" height="167" viewBox="0 0 134 167" fill="none" xmlns="http://www.w3.org/2000/svg">
<g opacity="0.1">
<path d="M66.6667 83.3333C71.25 83.3333 75.1736 81.7014 78.4375 78.4375C81.7014 75.1736 83.3333 71.25 83.3333 66.6667C83.3333 62.0833 81.7014 58.1597 78.4375 54.8958C75.1736 51.6319 71.25 50 66.6667 50C62.0833 50 58.1597 51.6319 54.8958 54.8958C51.6319 58.1597 50 62.0833 50 66.6667C50 71.25 51.6319 75.1736 54.8958 78.4375C58.1597 81.7014 62.0833 83.3333 66.6667 83.3333V83.3333M66.6667 144.583C83.6111 129.028 96.1806 114.896 104.375 102.188C112.569 89.4792 116.667 78.1944 116.667 68.3333C116.667 53.1944 111.84 40.7986 102.188 31.1458C92.5347 21.4931 80.6944 16.6667 66.6667 16.6667C52.6389 16.6667 40.7986 21.4931 31.1458 31.1458C21.4931 40.7986 16.6667 53.1944 16.6667 68.3333C16.6667 78.1944 20.7639 89.4792 28.9583 102.188C37.1528 114.896 49.7222 129.028 66.6667 144.583V144.583M66.6667 166.667C44.3056 147.639 27.6042 129.965 16.5625 113.646C5.52083 97.3264 0 82.2222 0 68.3333C0 47.5 6.70139 30.9028 20.1042 18.5417C33.5069 6.18056 49.0278 0 66.6667 0C84.3056 0 99.8264 6.18056 113.229 18.5417C126.632 30.9028 133.333 47.5 133.333 68.3333C133.333 82.2222 127.813 97.3264 116.771 113.646C105.729 129.965 89.0278 147.639 66.6667 166.667V166.667M66.6667 66.6667V66.6667V66.6667V66.6667V66.6667V66.6667V66.6667V66.6667V66.6667V66.6667" fill="#0F172A"/>
</g>
</svg>
