<svg width="15" height="17" viewBox="0 0 15 17" fill="none" xmlns="http://www.w3.org/2000/svg">
<path d="M7.5 16.6667L7.29167 14.1667H7.08333C5.11111 14.1667 3.4375 13.4792 2.0625 12.1042C0.6875 10.7292 0 9.05556 0 7.08333C0 5.11111 0.6875 3.4375 2.0625 2.0625C3.4375 0.6875 5.11111 0 7.08333 0C8.06944 0 8.98958 0.184028 9.84375 0.552083C10.6979 0.920139 11.4479 1.42708 12.0938 2.07292C12.7396 2.71875 13.2465 3.46875 13.6146 4.32292C13.9826 5.17708 14.1667 6.09722 14.1667 7.08333C14.1667 8.125 13.9965 9.125 13.6562 10.0833C13.316 11.0417 12.8507 11.9306 12.2604 12.75C11.6701 13.5694 10.9688 14.3125 10.1562 14.9792C9.34375 15.6458 8.45833 16.2083 7.5 16.6667V16.6667M9.16667 13.625C10.1528 12.7917 10.9549 11.816 11.5729 10.6979C12.191 9.57986 12.5 8.375 12.5 7.08333C12.5 5.56944 11.9757 4.28819 10.9271 3.23958C9.87847 2.19097 8.59722 1.66667 7.08333 1.66667C5.56944 1.66667 4.28819 2.19097 3.23958 3.23958C2.19097 4.28819 1.66667 5.56944 1.66667 7.08333C1.66667 8.59722 2.19097 9.87847 3.23958 10.9271C4.28819 11.9757 5.56944 12.5 7.08333 12.5H9.16667V13.625V13.625M7.0625 11.6458C7.29861 11.6458 7.5 11.5625 7.66667 11.3958C7.83333 11.2292 7.91667 11.0278 7.91667 10.7917C7.91667 10.5556 7.83333 10.3542 7.66667 10.1875C7.5 10.0208 7.29861 9.9375 7.0625 9.9375C6.82639 9.9375 6.625 10.0208 6.45833 10.1875C6.29167 10.3542 6.20833 10.5556 6.20833 10.7917C6.20833 11.0278 6.29167 11.2292 6.45833 11.3958C6.625 11.5625 6.82639 11.6458 7.0625 11.6458V11.6458M6.45833 9H7.70833C7.70833 8.58333 7.75 8.29167 7.83333 8.125C7.91667 7.95833 8.18056 7.65278 8.625 7.20833C8.875 6.95833 9.08333 6.6875 9.25 6.39583C9.41667 6.10417 9.5 5.79167 9.5 5.45833C9.5 4.75 9.26042 4.21875 8.78125 3.86458C8.30208 3.51042 7.73611 3.33333 7.08333 3.33333C6.47222 3.33333 5.95833 3.50347 5.54167 3.84375C5.125 4.18403 4.83333 4.59722 4.66667 5.08333L5.83333 5.54167C5.90278 5.30556 6.03472 5.07292 6.22917 4.84375C6.42361 4.61458 6.70833 4.5 7.08333 4.5C7.45833 4.5 7.73958 4.60417 7.92708 4.8125C8.11458 5.02083 8.20833 5.25 8.20833 5.5C8.20833 5.73611 8.13889 5.94792 8 6.13542C7.86111 6.32292 7.69444 6.51389 7.5 6.70833C7.01389 7.125 6.71875 7.45486 6.61458 7.69792C6.51042 7.94097 6.45833 8.375 6.45833 9V9M7.08333 7.64583V7.64583V7.64583V7.64583V7.64583V7.64583V7.64583V7.64583V7.64583V7.64583V7.64583V7.64583" fill="#0F172A"/>
</svg>
