<svg width="150" height="150" viewBox="0 0 150 150" fill="none" xmlns="http://www.w3.org/2000/svg">
<path d="M138.333 150L85.8333 97.5C81.6667 100.833 76.875 103.472 71.4583 105.417C66.0417 107.361 60.2778 108.333 54.1667 108.333C39.0278 108.333 26.2153 103.09 15.7292 92.6042C5.24306 82.1181 0 69.3056 0 54.1667C0 39.0278 5.24306 26.2153 15.7292 15.7292C26.2153 5.24306 39.0278 0 54.1667 0C69.3056 0 82.1181 5.24306 92.6042 15.7292C103.09 26.2153 108.333 39.0278 108.333 54.1667C108.333 60.2778 107.361 66.0417 105.417 71.4583C103.472 76.875 100.833 81.6667 97.5 85.8333L150 138.333L138.333 150V150M54.1667 91.6667C64.5833 91.6667 73.4375 88.0208 80.7292 80.7292C88.0208 73.4375 91.6667 64.5833 91.6667 54.1667C91.6667 43.75 88.0208 34.8958 80.7292 27.6042C73.4375 20.3125 64.5833 16.6667 54.1667 16.6667C43.75 16.6667 34.8958 20.3125 27.6042 27.6042C20.3125 34.8958 16.6667 43.75 16.6667 54.1667C16.6667 64.5833 20.3125 73.4375 27.6042 80.7292C34.8958 88.0208 43.75 91.6667 54.1667 91.6667V91.6667" fill="white" fill-opacity="0.1"/>
</svg>
